<?xml version="1.0" encoding="UTF-8" standalone="no"?><!DOCTYPE svg PUBLIC "-//W3C//DTD SVG 1.1//EN" "http://www.w3.org/Graphics/SVG/1.1/DTD/svg11.dtd"><svg width="100%" height="100%" viewBox="0 0 101 103" version="1.1" xmlns="http://www.w3.org/2000/svg" xmlns:xlink="http://www.w3.org/1999/xlink" xml:space="preserve" style="fill-rule:evenodd;clip-rule:evenodd;stroke-linejoin:round;stroke-miterlimit:2;"><path d="M37.789,0c-7.16,17.309 -24.37,2.917 -33.344,13.336c2.088,-17.917 16.051,-3.48 33.344,-13.336m-18.896,15.56c1.784,0.045 3.302,1.928 3.336,3.333l0,27.44l8.891,4.76l0,-9.968c0,-1.133 0.6,-2.253 1.563,-2.848c0.962,-0.597 2.253,-0.648 3.266,-0.141l26.291,13.131l0,-10.144c0,-1.131 0.6,-2.251 1.563,-2.846c0.965,-0.597 2.253,-0.648 3.264,-0.141l31.122,15.56c1.102,0.552 1.84,1.755 1.84,2.987l0,42.237c0,1.744 -1.589,3.333 -3.333,3.333l-93.363,0c-1.746,0 -3.333,-1.589 -3.333,-3.333l0,-80.027c0,-1.744 1.587,-3.333 3.333,-3.333l15.56,0Zm-3.333,6.669l-8.891,0l0,73.355l86.691,0l0,-36.885l-24.451,-12.227l0,10.211c-0.013,1.125 -0.637,2.229 -1.597,2.816c-0.96,0.584 -2.224,0.64 -3.232,0.136l-26.291,-13.163l0,10.211c-0.013,1.138 -0.656,2.266 -1.632,2.848c-0.978,0.581 -2.258,0.605 -3.264,0.069l-15.562,-8.333c-1.054,-0.563 -1.763,-1.726 -1.771,-2.92l0,-26.118Zm68.909,45.568c1.747,0 3.334,1.592 3.334,3.336l-0,11.115c-0,1.747 -1.587,3.333 -3.334,3.333l-15.56,0c-1.744,0 -3.336,-1.586 -3.336,-3.333l0,-11.115c0,-1.744 1.592,-3.336 3.336,-3.336l15.56,0Zm-26.674,0c1.746,0 3.333,1.592 3.333,3.336l0,11.115c0,1.747 -1.587,3.333 -3.333,3.333l-15.56,0c-1.744,0 -3.334,-1.586 -3.334,-3.333l0,-11.115c0,-1.744 1.59,-3.336 3.334,-3.336l15.56,0Zm-26.675,0c1.744,0 3.336,1.592 3.336,3.336l0,11.115c0,1.747 -1.592,3.333 -3.336,3.333l-15.56,0c-1.747,0 -3.333,-1.586 -3.333,-3.333l-0,-11.115c-0,-1.744 1.586,-3.336 3.333,-3.336l15.56,0Zm50.016,6.67l-8.891,-0l0,4.445l8.891,0l0,-4.445Zm-26.677,-0l-8.891,-0l0,4.445l8.891,0l-0,-4.445Zm-26.672,-0l-8.891,-0l0,4.445l8.891,0l-0,-4.445Z" style="fill:none;fill-rule:nonzero;"/></svg>
