<?xml version="1.0" encoding="UTF-8" standalone="no"?>
<!DOCTYPE svg PUBLIC "-//W3C//DTD SVG 1.1//EN" "http://www.w3.org/Graphics/SVG/1.1/DTD/svg11.dtd">
<svg width="100%" height="100%" viewBox="0 0 200 200" version="1.1" xmlns="http://www.w3.org/2000/svg" xmlns:xlink="http://www.w3.org/1999/xlink" xml:space="preserve" style="fill-rule:evenodd;clip-rule:evenodd;stroke-linejoin:round;stroke-miterlimit:2;">
    <g transform="matrix(2.66667,0,0,2.66667,-33.4444,-33.5)">
        <g>
            <path d="M72.188,61.896C79.958,49.438 78.458,32.813 67.646,22C55.063,9.417 34.562,9.417 21.979,22C9.396,34.583 9.396,55.083 21.979,67.667C28.271,73.938 36.542,77.083 44.813,77.083C50.75,77.083 56.667,75.438 61.875,72.188L75,85.313C76.417,86.729 78.292,87.438 80.146,87.438C82,87.438 83.875,86.729 85.313,85.313C88.146,82.479 88.146,77.854 85.313,75L72.188,61.896ZM26.396,63.229C16.25,53.083 16.25,36.563 26.396,26.396C31.479,21.313 38.146,18.792 44.813,18.792C51.479,18.792 58.146,21.333 63.229,26.396C73.375,36.542 73.375,53.063 63.229,63.229C53.083,73.375 36.563,73.375 26.396,63.229ZM80.917,80.917C80.521,81.313 79.833,81.313 79.438,80.917L66.875,68.354C67.125,68.125 67.396,67.896 67.646,67.646C67.896,67.396 68.104,67.125 68.354,66.875L80.917,79.438C81.313,79.833 81.313,80.521 80.917,80.917Z" style="fill-rule:nonzero;"/>
            <path d="M51.229,38.708C52.583,37.646 52.833,35.688 51.75,34.313C50.688,32.958 48.729,32.729 47.354,33.792L34.542,43.833C33.188,44.896 32.938,46.854 34.021,48.229C34.646,49.021 35.562,49.417 36.479,49.417C37.146,49.417 37.833,49.208 38.396,48.75L51.229,38.708Z" style="fill-rule:nonzero;"/>
            <path d="M51.729,43.229L38.917,53.271C37.563,54.333 37.313,56.292 38.396,57.667C39.021,58.458 39.938,58.854 40.854,58.854C41.521,58.854 42.208,58.646 42.771,58.188L55.583,48.146C56.938,47.083 57.188,45.125 56.104,43.75C55.042,42.417 53.083,42.188 51.729,43.229Z" style="fill-rule:nonzero;"/>
        </g>
    </g>
</svg>
