<?xml version="1.0" encoding="UTF-8" standalone="no"?><!DOCTYPE svg PUBLIC "-//W3C//DTD SVG 1.1//EN" "http://www.w3.org/Graphics/SVG/1.1/DTD/svg11.dtd"><svg width="100%" height="100%" viewBox="0 0 103 108" version="1.1" xmlns="http://www.w3.org/2000/svg" xmlns:xlink="http://www.w3.org/1999/xlink" xml:space="preserve" style="fill-rule:evenodd;clip-rule:evenodd;stroke-linejoin:round;stroke-miterlimit:2;"><g><path d="M100.587,53.949c-1.224,-0 -2.224,0.997 -2.224,2.221c-0,25.784 -21.003,46.904 -46.902,46.904c-25.898,0.003 -46.901,-21.005 -46.901,-46.792c0,-24.786 19.229,-45.013 43.568,-46.68l-2.003,1.555c-0.997,0.776 -1.224,2.221 -0.442,3.221c0.442,0.555 1.112,0.888 1.781,0.888c0.443,0 0.997,-0.112 1.331,-0.442l7.56,-5.779c0.554,-0.443 0.89,-1.109 0.89,-1.888c0,-0.776 -0.442,-1.445 -1,-1.779l-7.557,-5.002c-1,-0.67 -2.445,-0.443 -3.115,0.669c-0.666,0.997 -0.442,2.443 0.67,3.112l1.554,1c-26.68,1.779 -47.797,24.008 -47.797,51.125c0,28.344 23.005,51.35 51.349,51.35c28.347,-0 51.459,-23.006 51.459,-51.35c0,-1.224 -0.997,-2.336 -2.221,-2.336l-0,0.003Z" style="fill:#2a3747;fill-rule:nonzero;"/><path d="M101.589,44.392c0,3.704 -5.557,3.704 -5.557,-0c-0,-3.707 5.557,-3.707 5.557,-0" style="fill:#2a3747;fill-rule:nonzero;"/><path d="M98.035,34.056c-0,3.704 -5.558,3.704 -5.558,-0c0,-3.704 5.558,-3.704 5.558,-0" style="fill:#2a3747;fill-rule:nonzero;"/><path d="M91.365,24.386c0,3.704 -5.557,3.704 -5.557,0c-0,-3.709 5.557,-3.709 5.557,0" style="fill:#2a3747;fill-rule:nonzero;"/><path d="M82.139,16.05c-0,3.704 -5.555,3.704 -5.555,0c0,-3.709 5.555,-3.709 5.555,0" style="fill:#2a3747;fill-rule:nonzero;"/><path d="M71.132,10.272c0,3.704 -5.557,3.704 -5.557,-0c-0,-3.71 5.557,-3.71 5.557,-0" style="fill:#2a3747;fill-rule:nonzero;"/><path d="M71.132,45.17c0,-1.224 -1,-2.336 -2.336,-2.336l-30.117,0l5.115,-5.114c0.89,-0.891 0.89,-2.336 -0,-3.222c-0.443,-0.442 -0.998,-0.669 -1.667,-0.669c-0.557,-0 -1.224,0.221 -1.667,0.669l-9.005,9.006c-0.891,0.888 -0.891,2.333 -0,3.221l9.005,9.112c0.443,0.443 0.998,0.669 1.667,0.669c0.669,0 1.224,-0.221 1.667,-0.669c0.442,-0.443 0.669,-0.997 0.669,-1.667c-0,-0.669 -0.221,-1.224 -0.669,-1.666l-5.115,-5.224l30.123,-0c1.218,0.226 2.33,-0.886 2.33,-2.11" style="fill:#2a3747;fill-rule:nonzero;"/><path d="M60.466,79.959c0.669,0 1.224,-0.221 1.666,-0.669l9.006,-9.112c0.89,-0.891 0.89,-2.336 -0,-3.221l-9.006,-9.006c-0.888,-0.89 -2.333,-0.89 -3.221,0c-0.891,0.891 -0.891,2.336 -0,3.222l5.115,5.114l-30.235,0c-1.224,0 -2.336,0.998 -2.336,2.336c-0,1.224 1,2.336 2.336,2.336l30.123,0l-5.115,5.222c-0.443,0.445 -0.667,1 -0.667,1.669c0,0.667 0.222,1.224 0.667,1.667c0.445,0.221 1,0.442 1.667,0.442Z" style="fill:#2a3747;fill-rule:nonzero;"/></g></svg>
