<?xml version="1.0" encoding="UTF-8" standalone="no"?><!DOCTYPE svg PUBLIC "-//W3C//DTD SVG 1.1//EN" "http://www.w3.org/Graphics/SVG/1.1/DTD/svg11.dtd"><svg width="100%" height="100%" viewBox="0 0 101 70" version="1.1" xmlns="http://www.w3.org/2000/svg" xmlns:xlink="http://www.w3.org/1999/xlink" xml:space="preserve" style="fill-rule:evenodd;clip-rule:evenodd;stroke-linejoin:round;stroke-miterlimit:2;"><path d="M99.89,18.661c-0.131,-0.44 -0.36,-0.85 -0.691,-1.176l-16.666,-16.672c-0.523,-0.517 -1.23,-0.813 -1.968,-0.813l-61.128,0c-0.739,0 -1.446,0.296 -1.968,0.813l-16.667,16.672c-1.069,1.067 -1.069,2.87 -0,3.931l47.232,47.235c1.064,1.064 2.864,1.064 3.928,-0l47.237,-47.235c0.718,-0.709 0.976,-1.792 0.691,-2.755c-0.133,-0.44 0.285,0.963 0,0m-17.936,-10.562l8.576,8.573l-17.149,0l8.573,-8.573Zm-5.317,-2.542l-9.966,9.963l-9.962,-9.963l19.928,0Zm-16.672,11.115l-19.928,0l9.965,-9.963l9.963,9.963Zm-16.672,-11.115l-9.963,9.963l-9.965,-9.963l19.928,0Zm-25.246,2.542l8.574,8.573l-17.15,0l8.576,-8.573Zm-8.576,14.13l21.891,0l11.939,33.83l-33.83,-33.83Zm40.531,36.11l-12.749,-36.11l25.49,0l-12.741,36.11Zm6.693,-2.28l11.944,-33.83l21.891,0l-33.835,33.83Z" style="fill:none;fill-rule:nonzero;"/></svg>
