<?xml version="1.0" encoding="UTF-8" standalone="no"?><!DOCTYPE svg PUBLIC "-//W3C//DTD SVG 1.1//EN" "http://www.w3.org/Graphics/SVG/1.1/DTD/svg11.dtd"><svg width="100%" height="100%" viewBox="0 0 103 103" version="1.1" xmlns="http://www.w3.org/2000/svg" xmlns:xlink="http://www.w3.org/1999/xlink" xml:space="preserve" style="fill-rule:evenodd;clip-rule:evenodd;stroke-linejoin:round;stroke-miterlimit:2;"><g><path d="M51.318,41.925c-2.824,0 -5.117,2.288 -5.117,5.099c0,2.808 2.293,5.096 5.117,5.096c2.822,0 5.118,-2.288 5.118,-5.096c-0,-2.811 -2.296,-5.099 -5.118,-5.099" style="fill:#2a3747;fill-rule:nonzero;"/><path d="M55.265,53.436c-0.112,-0 -0.208,-0.03 -0.309,-0.064c-1.072,0.616 -2.312,0.968 -3.638,0.968c-1.32,-0 -2.557,-0.352 -3.629,-0.963c-0.091,0.024 -0.184,0.056 -0.288,0.056c-6.299,0 -11.421,4.645 -11.464,10.371c3.637,4.485 9.187,7.357 15.395,7.357c6.213,0 11.757,-2.872 15.4,-7.357c-0.043,-5.723 -5.168,-10.368 -11.467,-10.368Z" style="fill:#2a3747;fill-rule:nonzero;"/><path d="M51.335,31.502c-10.936,0 -19.832,8.896 -19.832,19.832c0,3.533 0.939,6.843 2.56,9.717c1.254,-5.042 5.755,-8.93 11.355,-9.69c-0.904,-1.216 -1.44,-2.715 -1.44,-4.339c-0,-4.037 3.293,-7.32 7.341,-7.32c4.046,0 7.342,3.283 7.342,7.32c-0,1.624 -0.539,3.117 -1.438,4.333c5.614,0.747 10.134,4.648 11.384,9.696c1.622,-2.874 2.56,-6.186 2.56,-9.717c0,-10.936 -8.893,-19.832 -19.832,-19.832" style="fill:#2a3747;fill-rule:nonzero;"/><path d="M25.63,13.29c0.064,0.059 0.133,0.112 0.194,0.176c0.478,0.48 0.883,1 1.224,1.552c4.811,-3.227 10.107,-5.424 15.779,-6.539c-0.144,-0.629 -0.232,-1.282 -0.232,-1.96c-0,-0.09 0.013,-0.176 0.013,-0.264c-6.112,1.168 -11.813,3.531 -16.978,7.035" style="fill:#2a3747;fill-rule:nonzero;"/><path d="M51.335,13.032c3.595,-0 6.518,-2.923 6.518,-6.517c-0,-3.595 -2.923,-6.515 -6.518,-6.515c-3.594,0 -6.514,2.92 -6.514,6.515c-0,3.594 2.92,6.517 6.514,6.517" style="fill:#2a3747;fill-rule:nonzero;"/><path d="M60.075,6.517c-0,0.672 -0.083,1.325 -0.224,1.952c5.664,1.117 10.96,3.314 15.771,6.544c0.344,-0.552 0.746,-1.072 1.226,-1.55c0.064,-0.064 0.128,-0.117 0.195,-0.178c-5.168,-3.499 -10.872,-5.862 -16.981,-7.038c0.005,0.091 0.013,0.179 0.013,0.27" style="fill:#2a3747;fill-rule:nonzero;"/><path d="M78.419,24.252c1.229,1.227 2.866,1.91 4.608,1.91c1.738,-0 3.376,-0.678 4.605,-1.91c1.232,-1.232 1.909,-2.869 1.909,-4.608c0,-1.738 -0.677,-3.376 -1.909,-4.605c-1.229,-1.232 -2.867,-1.909 -4.605,-1.909c-1.742,-0 -3.379,0.677 -4.608,1.909c-2.542,2.536 -2.542,6.672 -0,9.213" style="fill:#2a3747;fill-rule:nonzero;"/><path d="M89.208,25.824c-0.475,0.472 -0.995,0.877 -1.55,1.224c3.224,4.81 5.422,10.106 6.539,15.773c0.629,-0.144 1.28,-0.232 1.957,-0.232c0.091,0 0.179,0.013 0.264,0.013c-1.17,-6.112 -3.538,-11.813 -7.037,-16.978c-0.056,0.069 -0.112,0.138 -0.173,0.2" style="fill:#2a3747;fill-rule:nonzero;"/><path d="M96.154,44.817c-3.594,0 -6.517,2.923 -6.517,6.518c0,3.594 2.925,6.517 6.517,6.517c3.595,0 6.518,-2.923 6.518,-6.517c-0,-3.595 -2.923,-6.518 -6.518,-6.518" style="fill:#2a3747;fill-rule:nonzero;"/><path d="M83.031,76.506c-1.742,0 -3.379,0.677 -4.608,1.909c-1.227,1.235 -1.91,2.867 -1.91,4.608c0,1.742 0.678,3.376 1.91,4.606c1.229,1.234 2.866,1.912 4.608,1.912c1.741,-0 3.378,-0.678 4.605,-1.912c1.232,-1.23 1.909,-2.864 1.909,-4.606c0,-1.741 -0.677,-3.378 -1.909,-4.608c-1.232,-1.226 -2.869,-1.909 -4.605,-1.909" style="fill:#2a3747;fill-rule:nonzero;"/><path d="M51.335,89.636c-3.594,0 -6.514,2.926 -6.514,6.518c-0,3.594 2.92,6.517 6.514,6.517c3.595,-0 6.518,-2.923 6.518,-6.517c-0,-3.595 -2.923,-6.518 -6.518,-6.518" style="fill:#2a3747;fill-rule:nonzero;"/><path d="M42.597,96.152c0,-0.672 0.083,-1.325 0.229,-1.957c-5.669,-1.115 -10.962,-3.312 -15.773,-6.539c-0.347,0.552 -0.749,1.077 -1.224,1.547c-0.061,0.064 -0.128,0.114 -0.195,0.176c5.168,3.498 10.867,5.861 16.979,7.04c-0.008,-0.088 -0.016,-0.176 -0.016,-0.267" style="fill:#2a3747;fill-rule:nonzero;"/><path d="M13.464,76.846c0.475,-0.475 0.995,-0.877 1.55,-1.224c-3.224,-4.811 -5.422,-10.112 -6.539,-15.773c-0.629,0.146 -1.285,0.229 -1.957,0.229c-0.091,-0 -0.179,-0.011 -0.264,-0.011c1.17,6.107 3.538,11.814 7.037,16.979c0.056,-0.069 0.112,-0.141 0.173,-0.2" style="fill:#2a3747;fill-rule:nonzero;"/><path d="M77.051,89.387c-0.069,-0.064 -0.138,-0.12 -0.205,-0.186c-0.472,-0.472 -0.872,-0.99 -1.219,-1.542c-4.824,3.23 -10.13,5.411 -15.781,6.518c0.149,0.634 0.229,1.29 0.229,1.968c0,0.085 -0.013,0.168 -0.013,0.253c6.101,-1.157 11.811,-3.501 16.989,-7.011" style="fill:#2a3747;fill-rule:nonzero;"/><path d="M96.154,60.074c-0.672,-0 -1.325,-0.083 -1.954,-0.224c-1.115,5.661 -3.312,10.955 -6.539,15.771c0.552,0.346 1.072,0.752 1.547,1.224c0.064,0.064 0.117,0.13 0.178,0.194c3.499,-5.17 5.862,-10.874 7.032,-16.978c-0.085,0.005 -0.173,0.013 -0.264,0.013" style="fill:#2a3747;fill-rule:nonzero;"/><path d="M19.646,89.545c1.742,0 3.379,-0.677 4.608,-1.909c1.227,-1.23 1.91,-2.867 1.91,-4.608c-0,-1.742 -0.678,-3.376 -1.91,-4.606c-1.234,-1.229 -2.872,-1.912 -4.608,-1.912c-1.741,0 -3.378,0.678 -4.608,1.912c-1.232,1.23 -1.909,2.864 -1.909,4.606c0,1.741 0.677,3.378 1.909,4.608c1.23,1.232 2.867,1.909 4.608,1.909" style="fill:#2a3747;fill-rule:nonzero;"/><path d="M6.518,42.595c0.672,-0 1.325,0.082 1.957,0.229c1.117,-5.664 3.315,-10.96 6.539,-15.771c-0.552,-0.346 -1.078,-0.752 -1.547,-1.226c-0.059,-0.059 -0.115,-0.128 -0.176,-0.195c-3.499,5.168 -5.867,10.867 -7.037,16.981c0.085,-0.01 0.173,-0.018 0.264,-0.018" style="fill:#2a3747;fill-rule:nonzero;"/><path d="M13.035,51.334c-0,-3.595 -2.923,-6.517 -6.518,-6.517c-3.594,-0 -6.517,2.922 -6.517,6.517c0,3.595 2.923,6.517 6.517,6.517c3.595,0 6.518,-2.922 6.518,-6.517" style="fill:#2a3747;fill-rule:nonzero;"/><path d="M19.646,26.162c1.742,0 3.379,-0.677 4.608,-1.909c2.539,-2.541 2.539,-6.68 0,-9.219c-1.234,-1.232 -2.872,-1.909 -4.608,-1.909c-1.741,0 -3.378,0.677 -4.608,1.909c-1.232,1.23 -1.909,2.867 -1.909,4.608c0,1.742 0.677,3.376 1.909,4.606c1.23,1.237 2.867,1.914 4.608,1.914" style="fill:#2a3747;fill-rule:nonzero;"/></g></svg>
