<?xml version="1.0" encoding="UTF-8" standalone="no"?><!DOCTYPE svg PUBLIC "-//W3C//DTD SVG 1.1//EN" "http://www.w3.org/Graphics/SVG/1.1/DTD/svg11.dtd"><svg width="100%" height="100%" viewBox="0 0 99 99" version="1.1" xmlns="http://www.w3.org/2000/svg" xmlns:xlink="http://www.w3.org/1999/xlink" xml:space="preserve" style="fill-rule:evenodd;clip-rule:evenodd;stroke-linejoin:round;stroke-miterlimit:2;"><path d="M81.068,58.978c-0,2.04 -3.083,2.04 -3.083,-0c-0,-2.043 3.083,-2.043 3.083,-0" style="fill:none;fill-rule:nonzero;"/><path d="M81.068,66.629c-0,2.043 -3.083,2.043 -3.083,0c-0,-2.04 3.083,-2.04 3.083,0" style="fill:none;fill-rule:nonzero;"/><path d="M40.97,64.337c-0,2.043 -3.085,2.043 -3.085,0c-0,-2.045 3.085,-2.045 3.085,0" style="fill:none;fill-rule:nonzero;"/><path d="M40.97,71.991c-0,2.04 -3.085,2.04 -3.085,-0c-0,-2.043 3.085,-2.043 3.085,-0" style="fill:none;fill-rule:nonzero;"/><path d="M40.97,79.645c-0,2.04 -3.085,2.04 -3.085,-0c-0,-2.043 3.085,-2.043 3.085,-0" style="fill:none;fill-rule:nonzero;"/><path d="M40.97,87.296c-0,2.042 -3.085,2.042 -3.085,-0c-0,-2.04 3.085,-2.04 3.085,-0" style="fill:none;fill-rule:nonzero;"/><path d="M71.814,41.374c-3.715,-0.016 -7.208,1.763 -9.382,4.781c-5.144,-3.173 -11.864,-1.84 -15.413,3.054c-4.405,-2.702 -10.067,-2.158 -13.877,1.33c-0.096,0.088 -0.176,0.187 -0.27,0.275c-4.434,-4.352 -11.506,-4.432 -16.037,-0.181l2.779,1.653c3.477,-2.635 8.381,-2.213 11.357,0.976c-0.32,0.533 -0.592,1.093 -0.816,1.672l3.701,-0.56l0.006,-0c0.381,-0.581 0.834,-1.109 1.346,-1.576c2.854,-2.608 7.099,-2.976 10.358,-0.896c0.021,0.016 0.053,0.029 0.074,0.045c0.254,0.166 0.496,0.347 0.726,0.536l3.709,-0.56c-0.211,-0.266 -0.432,-0.53 -0.667,-0.778c2.616,-3.758 7.731,-4.768 11.576,-2.294c-0.178,0.486 -0.32,0.984 -0.432,1.491l3.344,-0.504l-0.005,-0c0.104,-0.272 0.224,-0.539 0.357,-0.8c1.334,-2.563 3.867,-4.275 6.739,-4.56c2.872,-0.283 5.693,0.904 7.499,3.155l3.344,-0.507c-2.07,-3.571 -5.886,-5.765 -10.016,-5.752Z" style="fill:none;fill-rule:nonzero;"/><path d="M33.256,29.889l1.638,-2.965l2.992,-1.624l-2.992,-1.624l-1.638,-2.968l-1.634,2.968l-2.99,1.624l2.99,1.624l1.634,2.965Z" style="fill:none;fill-rule:nonzero;"/><path d="M47.907,37.548l1.64,-2.97l2.99,-1.624l-2.99,-1.622l-1.64,-2.968l-1.634,2.968l-2.99,1.622l2.99,1.624l1.634,2.97Z" style="fill:none;fill-rule:nonzero;"/><path d="M59.478,25.301l1.634,-2.971l2.99,-1.626l-2.99,-1.622l-1.634,-2.965l-1.638,2.965l-2.992,1.622l2.992,1.626l1.638,2.971Z" style="fill:none;fill-rule:nonzero;"/><path d="M62.625,81.129l2.749,-2.752c0.131,-0.131 0.267,-0.253 0.411,-0.373l0.003,-0c0.92,-1.598 1.4,-3.406 1.392,-5.248c-0,-5.064 -3.456,-9.184 -7.702,-9.184c-4.245,-0.006 -7.704,4.12 -7.704,9.184c0,5.066 3.456,9.186 7.699,9.186l0.005,0c1.099,-0.005 2.182,-0.285 3.147,-0.813m-7.787,-8.373c0,-3.376 2.078,-6.123 4.635,-6.123c2.56,0 4.637,2.747 4.637,6.123c0,3.376 -2.077,6.12 -4.637,6.12c-2.552,-0 -4.635,-2.747 -4.635,-6.12" style="fill:none;fill-rule:nonzero;"/><path d="M77.985,74.283c0,0.045 0.006,0.08 0.011,0.122c0.867,-0.525 1.851,-0.832 2.861,-0.88c-0.346,-0.602 -1.053,-0.896 -1.728,-0.72c-0.669,0.179 -1.141,0.784 -1.144,1.478" style="fill:none;fill-rule:nonzero;"/><path d="M47.126,91.106l0,-32.542l24.699,-3.73l-0,22.109c0.851,0.309 1.624,0.795 2.259,1.435l0.805,0.802l-0,-24.808l9.275,-1.402l-0,20.541l3.064,-0l-0,-21.005l6.189,-0.934l-0,21.939l1.533,-0c0.515,-0 1.03,0.069 1.531,0.205l-0,-23.922c-0,-0.04 -0.008,-0.078 -0.011,-0.115l0,-0.024c-0.005,-0.024 0,-0.043 -0.005,-0.064l-0,-0.027c-0.003,-0.013 -0.005,-0.029 -0.011,-0.04l0,0.003c-0.01,-0.051 -0.024,-0.107 -0.037,-0.157c-0.016,-0.048 -0.027,-0.099 -0.043,-0.139c-0.008,-0.021 -0.016,-0.04 -0.024,-0.056c-0.005,-0.013 -0.013,-0.024 -0.021,-0.04c-0.005,-0.011 -0.013,-0.019 -0.016,-0.027l-0.005,-0.005c-0.022,-0.051 -0.046,-0.093 -0.075,-0.141c-0.024,-0.032 -0.048,-0.062 -0.069,-0.091c-0.024,-0.029 -0.043,-0.056 -0.064,-0.085l-0.008,-0.011c-0.014,-0.016 -0.027,-0.027 -0.043,-0.043c-0.027,-0.026 -0.053,-0.048 -0.08,-0.072l-0,-0.005c-0.048,-0.043 -0.093,-0.08 -0.141,-0.115c-0.024,-0.016 -0.051,-0.032 -0.078,-0.045c-0.008,-0.003 -0.016,-0.013 -0.024,-0.019l-20.394,-11.973l10.437,-26.843c0.003,-0.013 0.008,-0.029 0.011,-0.042l-0,-0.003c0.034,-0.096 0.058,-0.195 0.072,-0.293c0.002,-0.016 0.008,-0.032 0.008,-0.048l-0,-0.003c0.01,-0.115 0.01,-0.235 -0.006,-0.349c-0.002,-0.032 -0.008,-0.062 -0.016,-0.094l0.003,0.006c-0.016,-0.088 -0.04,-0.168 -0.069,-0.254c-0.016,-0.037 -0.032,-0.077 -0.046,-0.109c-0.016,-0.032 -0.024,-0.061 -0.04,-0.088l-4.058,-7.573c-0.286,-0.536 -0.859,-0.851 -1.464,-0.806l-70.16,5.374c-0.518,0.037 -0.976,0.336 -1.224,0.792c-1.35,1.824 -11.875,17.05 -7.88,41.573c0.048,0.293 0.186,0.563 0.394,0.781l0,35.243c0,0.008 0.003,0.016 0.003,0.029l-0.003,0c0.003,0.056 0.006,0.115 0.019,0.171c0.003,0.043 0.008,0.088 0.019,0.131c0.01,0.045 0.026,0.085 0.042,0.133l-0.005,-0c0.016,0.048 0.032,0.099 0.051,0.149c0.016,0.038 0.04,0.072 0.061,0.112c0.027,0.048 0.053,0.099 0.085,0.144c0.022,0.035 0.054,0.064 0.075,0.096c0.035,0.046 0.075,0.091 0.115,0.131c0.026,0.024 0.053,0.045 0.082,0.069c0.048,0.046 0.102,0.086 0.16,0.12c0.008,0.006 0.011,0.008 0.016,0.014l20.406,12.714c0.245,0.155 0.525,0.235 0.81,0.235c0.08,-0 0.163,-0.008 0.243,-0.019l0.027,-0.005c0.32,0.059 0.645,0.008 0.93,-0.149l29.198,-4.675c-0.014,-0.152 -0.024,-0.309 -0.024,-0.467c-0,-0.946 0.221,-1.882 0.642,-2.733l-7.12,1.139Zm25.28,-55.542l-67.656,10.139l11.326,-29.104l65.944,-5.755l-9.614,24.72Zm6.998,-32.432l2.488,4.643l-66.08,5.771l-3.134,-5.307l66.726,-5.107Zm-69.347,6.699l3.235,5.472l-10.067,25.88c-1.077,-15.955 4.291,-27.061 6.835,-31.352l-0.003,-0Zm12.152,84.213l-17.853,-11.122l-0,-32.651l17.853,10.933l-0,32.84Zm2.117,-35.133l-17.114,-10.477l65.64,-9.835l17.597,10.325l-66.123,9.987Zm7.403,34.661l-6.456,1.032l-0.005,-32.741l6.456,-0.976l0.005,32.685Zm12.339,-1.976l-9.278,1.486l0,-32.654l9.278,-1.4l-0,32.568Z" style="fill:none;fill-rule:nonzero;"/><path d="M74.138,82.757l-2.216,-2.216l-0,0.002c-1.211,-1.205 -3.171,-1.205 -4.381,0l-9.966,9.966c-0.581,0.584 -0.906,1.373 -0.906,2.192c-0,0.821 0.325,1.61 0.906,2.194l2.216,2.216l0,-0.005c1.211,1.208 3.168,1.208 4.382,-0l9.965,-9.968l-0,0.003c0.579,-0.582 0.907,-1.371 0.907,-2.195c-0,-0.819 -0.328,-1.605 -0.907,-2.189m-2.165,2.216l-10.016,9.965l-2.214,-2.261l10.014,-9.968l2.216,2.218l-0,-0.005c0.01,0.016 0.01,0.035 -0,0.051" style="fill:none;fill-rule:nonzero;"/><path d="M94.95,76.574l-13.781,0c-1.691,0 -3.061,1.371 -3.061,3.062l-0,3.064c-1.691,-0 -3.062,1.37 -3.062,3.061l0,3.064c0,1.693 1.371,3.059 3.062,3.061l-0,3.064c-0,1.691 1.37,3.059 3.061,3.064l13.781,0c1.691,-0.005 3.062,-1.373 3.062,-3.064l-0,-3.064c-0,-1.69 -1.371,-3.061 -3.062,-3.061l0,-3.064c1.691,-0.003 3.062,-1.368 3.062,-3.061l-0,-3.064c-0,-1.691 -1.371,-3.062 -3.062,-3.062m-16.845,9.187l13.781,0l0,3.061l-13.781,0l0,-3.061Zm16.845,9.189l-13.781,0l0,-3.061l13.781,0l0,3.061Zm0,-12.25l-13.784,-0l0,-3.064l13.784,-0l0,3.064Z" style="fill:none;fill-rule:nonzero;"/></svg>
