<?xml version="1.0" encoding="UTF-8" standalone="no"?><!DOCTYPE svg PUBLIC "-//W3C//DTD SVG 1.1//EN" "http://www.w3.org/Graphics/SVG/1.1/DTD/svg11.dtd"><svg width="100%" height="100%" viewBox="0 0 89 85" version="1.1" xmlns="http://www.w3.org/2000/svg" xmlns:xlink="http://www.w3.org/1999/xlink" xml:space="preserve" style="fill-rule:evenodd;clip-rule:evenodd;stroke-linejoin:round;stroke-miterlimit:2;"><g><rect x="7.395" y="65.085" width="8.877" height="17.752" style="fill:#2a3747;"/><rect x="23.667" y="53.251" width="8.875" height="29.587" style="fill:#2a3747;"/><rect x="39.939" y="44.376" width="8.877" height="38.461" style="fill:#2a3747;"/><rect x="56.211" y="44.376" width="8.877" height="38.461" style="fill:#2a3747;"/><rect x="72.483" y="20.709" width="8.875" height="62.128" style="fill:#2a3747;"/><path d="M24.281,38.461l20.709,0l28.971,-28.973l-0,5.304l2.96,-0l-0,-10.355l-10.355,0l0,2.957l5.301,0l-28.104,28.107l-20.709,0l-22.624,22.624l2.093,2.091l21.758,-21.755Z" style="fill:#2a3747;fill-rule:nonzero;"/><path d="M35.501,5.917c-4.187,-0 -7.963,2.522 -9.566,6.389c-1.602,3.872 -0.717,8.325 2.243,11.288c2.963,2.963 7.416,3.845 11.288,2.245c3.869,-1.605 6.389,-5.381 6.389,-9.568c-0.005,-5.717 -4.634,-10.346 -10.354,-10.354m-5.918,11.834l-2.957,0l0,-2.96l2.957,0l0,2.96Zm5.918,-2.96c2.392,0.062 4.285,2.046 4.234,4.44c0.019,1.814 -1.074,3.456 -2.754,4.142l-0,1.773l-2.96,0l-0,-1.773c-1.678,-0.686 -2.774,-2.328 -2.755,-4.142l2.957,0c0.075,0.499 0.435,0.907 0.92,1.048c0.483,0.142 1.006,-0.013 1.334,-0.394c0.33,-0.384 0.408,-0.926 0.197,-1.384c-0.211,-0.459 -0.669,-0.75 -1.173,-0.75c-2.392,-0.058 -4.286,-2.045 -4.235,-4.44c-0.019,-1.813 1.077,-3.456 2.755,-4.141l-0,-1.773l2.96,-0l-0,1.773c1.68,0.685 2.773,2.328 2.754,4.141l-2.957,0c-0.075,-0.498 -0.435,-0.906 -0.917,-1.048c-0.486,-0.141 -1.008,0.014 -1.336,0.395c-0.328,0.384 -0.408,0.925 -0.195,1.384c0.211,0.459 0.669,0.749 1.171,0.749m5.917,0l2.957,0l0,2.96l-2.957,0l0,-2.96Z" style="fill:#2a3747;fill-rule:nonzero;"/><rect x="5.917" y="0" width="2.957" height="2.957" style="fill:#2a3747;"/><rect x="11.832" y="0" width="11.835" height="2.957" style="fill:#2a3747;"/><rect x="5.917" y="5.917" width="11.832" height="2.957" style="fill:#2a3747;"/><rect x="0" y="81.36" width="88.755" height="2.957" style="fill:#2a3747;"/></g></svg>
