<?xml version="1.0" encoding="UTF-8" standalone="no"?>
<!DOCTYPE svg PUBLIC "-//W3C//DTD SVG 1.1//EN" "http://www.w3.org/Graphics/SVG/1.1/DTD/svg11.dtd">
<svg width="100%" height="100%" viewBox="0 0 224 82" version="1.1" xmlns="http://www.w3.org/2000/svg" xmlns:xlink="http://www.w3.org/1999/xlink" xml:space="preserve" xmlns:serif="http://www.serif.com/" style="fill-rule:evenodd;clip-rule:evenodd;stroke-linejoin:round;stroke-miterlimit:2;">
    <g transform="matrix(0.32,0,0,0.32,-3665.7,-1437.86)">
        <g transform="matrix(8.33333,0,0,8.33333,0,0)">
            <g transform="matrix(31.5724,0,0,31.5724,1371.79,563.539)">
                <path d="M0.09,-0L0.09,-0.536L0.229,-0.536L0.229,-0.435C0.271,-0.511 0.332,-0.548 0.41,-0.548C0.45,-0.548 0.483,-0.538 0.509,-0.519C0.535,-0.499 0.551,-0.471 0.557,-0.435C0.607,-0.511 0.668,-0.548 0.739,-0.548C0.837,-0.548 0.886,-0.494 0.886,-0.386L0.886,-0L0.747,-0L0.747,-0.339C0.747,-0.402 0.726,-0.434 0.684,-0.434C0.64,-0.434 0.598,-0.403 0.557,-0.34L0.557,-0L0.418,-0L0.418,-0.339C0.418,-0.403 0.397,-0.435 0.354,-0.435C0.312,-0.435 0.27,-0.403 0.229,-0.34L0.229,-0L0.09,-0Z" style="fill:rgb(42,55,71);fill-rule:nonzero;"/>
            </g>
            <g transform="matrix(31.5724,0,0,31.5724,1400.08,563.539)">
                <path d="M0.092,0.193L0.214,-0L0.015,-0.536L0.17,-0.536L0.303,-0.178L0.461,-0.536L0.571,-0.536L0.24,0.193L0.092,0.193Z" style="fill:rgb(42,55,71);fill-rule:nonzero;"/>
            </g>
            <g transform="matrix(31.5724,0,0,31.5724,1416.16,563.539)">
                <path d="M0.09,-0L0.09,-0.771L0.235,-0.771L0.235,-0.435C0.272,-0.511 0.33,-0.548 0.41,-0.548C0.475,-0.548 0.525,-0.525 0.562,-0.478C0.599,-0.43 0.618,-0.365 0.618,-0.283C0.618,-0.193 0.597,-0.122 0.555,-0.068C0.514,-0.015 0.458,0.012 0.388,0.012C0.328,0.012 0.277,-0.01 0.235,-0.054L0.208,-0L0.09,-0ZM0.235,-0.14C0.27,-0.101 0.307,-0.082 0.347,-0.082C0.383,-0.082 0.411,-0.099 0.432,-0.133C0.453,-0.167 0.464,-0.213 0.464,-0.271C0.464,-0.38 0.429,-0.435 0.358,-0.435C0.315,-0.435 0.274,-0.408 0.235,-0.353L0.235,-0.14Z" style="fill:rgb(42,55,71);fill-rule:nonzero;"/>
            </g>
            <g transform="matrix(31.5724,0,0,31.5724,1434.75,563.539)">
                <path d="M0.09,-0L0.09,-0.536L0.235,-0.536L0.235,-0L0.09,-0ZM0.09,-0.626L0.09,-0.747L0.235,-0.747L0.235,-0.626L0.09,-0.626Z" style="fill:rgb(42,55,71);fill-rule:nonzero;"/>
            </g>
            <g transform="matrix(31.5724,0,0,31.5724,1442.7,563.539)">
                <path d="M0.076,-0.017L0.076,-0.123C0.148,-0.093 0.209,-0.078 0.26,-0.078C0.319,-0.078 0.349,-0.098 0.349,-0.139C0.349,-0.165 0.324,-0.188 0.275,-0.207L0.227,-0.227C0.174,-0.248 0.136,-0.271 0.113,-0.296C0.09,-0.321 0.079,-0.351 0.079,-0.388C0.079,-0.438 0.098,-0.478 0.137,-0.506C0.175,-0.534 0.23,-0.548 0.299,-0.548C0.343,-0.548 0.395,-0.542 0.455,-0.529L0.455,-0.428C0.397,-0.448 0.349,-0.458 0.311,-0.458C0.251,-0.458 0.221,-0.439 0.221,-0.402C0.221,-0.378 0.243,-0.357 0.288,-0.34L0.33,-0.324C0.392,-0.3 0.436,-0.276 0.461,-0.252C0.485,-0.228 0.498,-0.196 0.498,-0.158C0.498,-0.107 0.477,-0.066 0.435,-0.035C0.393,-0.003 0.339,0.012 0.271,0.012C0.207,0.012 0.142,0.002 0.076,-0.017Z" style="fill:rgb(42,55,71);fill-rule:nonzero;"/>
            </g>
        </g>
    </g>
</svg>
